<svg width="24" height="24" viewBox="0 0 24 24" fill="none" xmlns="http://www.w3.org/2000/svg">
<path d="M18.1557 7.87992C17.7182 7.62828 17.1558 7.62828 16.6558 7.87992L13.1561 9.95588L10.7813 11.2769L7.34411 13.3529C6.90665 13.6045 6.34419 13.6045 5.84424 13.3529L3.15696 11.7173C2.7195 11.4657 2.40703 10.9624 2.40703 10.3962V7.25084C2.40703 6.74757 2.65701 6.24431 3.15696 5.92977L5.84424 4.35707C6.2817 4.10544 6.84415 4.10544 7.34411 4.35707L10.0314 5.99268C10.4688 6.24431 10.7813 6.74757 10.7813 7.31374V9.38971L13.1561 8.00573V5.86686C13.1561 5.3636 12.9061 4.86033 12.4062 4.54579L7.40661 1.58911C6.96914 1.33748 6.40669 1.33748 5.90673 1.58911L0.782163 4.6087C0.282206 4.86033 0.0322266 5.3636 0.0322266 5.86686V11.7802C0.0322266 12.2835 0.282206 12.7867 0.782163 13.1013L5.84424 16.058C6.2817 16.3096 6.84415 16.3096 7.34411 16.058L10.7813 14.0449L13.1561 12.6609L16.5933 10.6479C17.0308 10.3962 17.5932 10.3962 18.0932 10.6479L20.7805 12.2206C21.2179 12.4722 21.5304 12.9755 21.5304 13.5416V16.687C21.5304 17.1903 21.2804 17.6936 20.7805 18.0081L18.1557 19.5808C17.7182 19.8324 17.1558 19.8324 16.6558 19.5808L13.9686 18.0081C13.5311 17.7565 13.2186 17.2532 13.2186 16.687V14.674L10.8438 16.058V18.1339C10.8438 18.6372 11.0938 19.1404 11.5938 19.455L16.6558 22.4117C17.0933 22.6633 17.6557 22.6633 18.1557 22.4117L23.2178 19.455C23.6552 19.2034 23.9677 18.7001 23.9677 18.1339V12.1577C23.9677 11.6544 23.7177 11.1511 23.2178 10.8366L18.1557 7.87992Z" fill="#8247E5"/>
</svg>
